<svg width="23" height="16" viewBox="0 0 23 16" fill="none" xmlns="http://www.w3.org/2000/svg">
    <rect width="23" height="16" rx="2.5" fill="#349DDE"/>
    <rect x="0.5" y="0.5" width="22" height="15" rx="2" stroke="white" stroke-opacity="0.5"/>
    <path fill-rule="evenodd" clip-rule="evenodd" d="M4.1443 5.62109L2 10.5767H4.56703L4.88527 9.7866H5.61269L5.93093 10.5767H8.75651V9.97368L9.00828 10.5767H10.4699L10.7217 9.96093V10.5767H16.5981L17.3127 9.80711L17.9817 10.5767L21 10.5831L18.8489 8.11275L21 5.62109H18.0285L17.333 6.37649L16.685 5.62109H10.2922L9.74322 6.90019L9.18139 5.62109H6.61972V6.20363L6.33475 5.62109H4.1443ZM12.9199 6.3248H16.2945L17.3266 7.48909L18.3919 6.3248H19.4241L17.8559 8.11205L19.4241 9.8787H18.3451L17.313 8.70088L16.2422 9.8787H12.9199V6.3248ZM13.7539 7.71024V7.06109V7.06047H15.8595L16.7783 8.09862L15.8188 9.14244H13.7539V8.43376H15.5949V7.71024H13.7539ZM4.64046 6.3248H5.89175L7.31406 9.68524V6.3248H8.6848L9.78338 8.73422L10.7958 6.3248H12.1597V9.88079H11.3298L11.3231 7.09434L10.1131 9.88079H9.37077L8.15409 7.09434V9.88079H6.4468L6.12313 9.08359H4.37446L4.05146 9.88009H3.13672L4.64046 6.3248ZM4.67394 8.3466L5.25005 6.92644L5.8255 8.3466H4.67394Z" fill="white"/>
    </svg>
    