<svg width="20" height="20" viewBox="0 0 20 20" fill="none" xmlns="http://www.w3.org/2000/svg">
<path fill-rule="evenodd" clip-rule="evenodd" d="M12.9706 3.8464C13.5606 3.08467 14.0079 2.00806 13.8461 0.909092C12.8817 0.976115 11.7544 1.59315 11.0967 2.39743C10.4971 3.12616 10.0043 4.21024 10.1967 5.26239C11.251 5.29536 12.3392 4.66344 12.9706 3.8464ZM18.1818 14.1838C17.7599 15.1243 17.5568 15.5445 17.0133 16.3775C16.2551 17.5403 15.186 18.9882 13.8599 18.9988C12.6829 19.0116 12.3794 18.2275 10.7815 18.2371C9.18369 18.2456 8.85058 19.0137 7.67148 19.002C6.34644 18.9904 5.33337 17.6839 4.57515 16.5211C2.45383 13.2721 2.2307 9.45818 3.53881 7.42941C4.4694 5.98896 5.93719 5.14637 7.31616 5.14637C8.71944 5.14637 9.60245 5.92086 10.7646 5.92086C11.8919 5.92086 12.5782 5.14425 14.2015 5.14425C15.4303 5.14425 16.732 5.81767 17.6584 6.9794C14.6213 8.65391 15.113 13.0168 18.1818 14.1838Z" fill="#1B1B1B"/>
</svg>
