<svg width="23" height="16" viewBox="0 0 23 16" fill="none" xmlns="http://www.w3.org/2000/svg">
<rect width="23" height="16" rx="2.5" fill="white"/>
<rect x="0.5" y="0.5" width="22" height="15" rx="2" stroke="white" stroke-opacity="0.5"/>
<path fill-rule="evenodd" clip-rule="evenodd" d="M16.8408 7.96601C16.8408 10.8931 14.4682 13.266 11.5415 13.266C8.61478 13.266 6.24219 10.8931 6.24219 7.96601C6.24219 5.03891 8.61478 2.66602 11.5415 2.66602C14.4682 2.66602 16.8408 5.03891 16.8408 7.96601ZM12.8165 5.9969C13.5537 6.25007 14.0929 6.62916 13.9871 7.33466C13.9103 7.85127 13.6229 8.10113 13.241 8.18861C13.7649 8.46034 13.9435 8.97604 13.7776 9.5996C13.4625 10.497 12.7137 10.5725 11.7178 10.385L11.4759 11.3496L10.8921 11.2044L11.1306 10.2527C10.9793 10.2153 10.8246 10.1752 10.6653 10.1325L10.4258 11.0888L9.84262 10.9437L10.0841 9.97704L8.9082 9.68145L9.19828 9.01539C9.19828 9.01539 9.62873 9.12905 9.62274 9.12076C9.78807 9.16152 9.86158 9.05416 9.89052 8.98291L10.5458 6.36472C10.5532 6.24112 10.5103 6.08538 10.2737 6.02639C10.2827 6.02009 9.84961 5.92135 9.84961 5.92135L10.005 5.30002L11.1825 5.59063L11.4221 4.63495L12.0055 4.78009L11.771 5.71689C11.928 5.75234 12.0857 5.78846 12.239 5.82657L12.4719 4.89574L13.0557 5.04088L12.8165 5.9969ZM11.4169 7.591C11.8144 7.69645 12.6794 7.9259 12.8302 7.32428C12.984 6.70876 12.1436 6.52286 11.7322 6.43184C11.6855 6.42152 11.6444 6.41242 11.6109 6.40406L11.3203 7.56586C11.3479 7.5727 11.3805 7.58133 11.4169 7.591ZM10.967 9.46148C11.4431 9.58696 12.4844 9.86139 12.6501 9.19847C12.8197 8.52065 11.8101 8.29488 11.3174 8.18472C11.2624 8.17241 11.2138 8.16155 11.1741 8.15166L10.8535 9.43209C10.8861 9.44016 10.9243 9.45022 10.967 9.46147L10.967 9.46148Z" fill="#FED326"/>
</svg>
