<svg width="36" height="36" viewBox="0 0 36 36" fill="none" xmlns="http://www.w3.org/2000/svg">
<path d="M18.0004 1.80078C9.38451 1.80078 2.40039 8.7849 2.40039 17.4008C2.40039 26.0167 9.38451 33.0008 18.0004 33.0008C26.6163 33.0008 33.6004 26.0167 33.6004 17.4008C33.6004 8.7849 26.6163 1.80078 18.0004 1.80078Z" fill="#349DDE"/>
<path d="M20.2054 22.1812H24.4859L25.1582 18.3107H20.2054V16.1951C20.2054 14.5873 20.7958 13.1615 22.4854 13.1615H25.2004V9.78412C24.7232 9.7267 23.7143 9.60156 21.8081 9.60156C17.8269 9.60156 15.4932 11.4728 15.4932 15.7364V18.3114H11.4004V22.182H15.4923V32.8205C16.3028 32.928 17.124 33.0016 17.9667 33.0016C18.7284 33.0016 19.4718 32.9397 20.2054 32.8514V22.1812Z" fill="white"/>
</svg>
