<svg width="20" height="20" viewBox="0 0 20 20" fill="none" xmlns="http://www.w3.org/2000/svg">
<g clip-path="url(#clip0_34566_40031)">
<path d="M19.7634 10.1908C19.7634 9.36642 19.6947 8.771 19.5496 8.15268H10.1985V11.8473H15.687C15.5833 12.4965 15.3493 13.1179 14.999 13.6741C14.6487 14.2304 14.1894 14.71 13.6489 15.084L13.6336 15.2061L16.5878 17.4962L16.7939 17.5191C18.6794 15.7786 19.7634 13.2214 19.7634 10.1908Z" fill="#349DDE"/>
<path d="M10.1984 19.9313C12.8855 19.9313 15.145 19.0458 16.7939 17.5191L13.6488 15.0763C12.8091 15.6718 11.6794 16.0763 10.1984 16.0763C8.93833 16.0697 7.71231 15.6664 6.69427 14.9238C5.67623 14.1811 4.91785 13.1368 4.52668 11.9389L4.41218 11.9466L1.33584 14.3282L1.29004 14.4428C2.93126 17.6947 6.29767 19.9237 10.1984 19.9237" fill="#28A745"/>
<path d="M4.52682 11.9389C4.08737 10.661 4.082 9.27369 4.51155 7.99237V7.8626L1.39705 5.44275L1.29018 5.48855C0.592551 6.87788 0.229248 8.41101 0.229248 9.96565C0.229248 11.5203 0.592551 13.0534 1.29018 14.4427L4.52682 11.9389Z" fill="#FED326"/>
<path d="M10.1984 3.85496C12.0687 3.85496 13.3282 4.66412 14.0458 5.33588L16.8702 2.59542C15.1297 0.992366 12.8855 0 10.1984 0C6.29767 0 2.93126 2.23664 1.29004 5.49618L4.51141 7.99237C4.90702 6.79575 5.66759 5.75314 6.68627 5.01104C7.70494 4.26894 8.93052 3.86465 10.1908 3.85496" fill="#F1531A"/>
</g>
<defs>
<clipPath id="clip0_34566_40031">
<rect width="20" height="20" fill="white"/>
</clipPath>
</defs>
</svg>
