<svg width="23" height="16" viewBox="0 0 23 16" fill="none" xmlns="http://www.w3.org/2000/svg">
<rect width="23" height="16" rx="2.5" fill="white"/>
<rect x="0.5" y="0.5" width="22" height="15" rx="2" stroke="white" stroke-opacity="0.5"/>
<path fill-rule="evenodd" clip-rule="evenodd" d="M10.8624 10.505V8.49102H11.887C12.3068 8.49102 12.6612 8.34829 12.9501 8.06681L13.0194 7.99545C13.5472 7.41267 13.5125 6.5048 12.9501 5.96563C12.6689 5.68018 12.2837 5.52556 11.887 5.53349H10.2422V10.505H10.8624ZM10.8633 7.88048V6.14403H11.9035C12.1269 6.14403 12.3388 6.23125 12.4968 6.38983C12.8319 6.72285 12.8396 7.27788 12.516 7.62279C12.3581 7.79326 12.1346 7.88841 11.9035 7.88048H10.8633ZM15.9118 7.36908C15.646 7.11931 15.2839 6.99245 14.8255 6.99245C14.2362 6.99245 13.7932 7.21446 13.5005 7.65452L14.0474 8.00736C14.2477 7.70606 14.5212 7.55541 14.8679 7.55541C15.0875 7.55541 15.2993 7.63866 15.465 7.78932C15.6267 7.93204 15.7192 8.13819 15.7192 8.35624V8.50293C15.4804 8.36813 15.1799 8.29677 14.8101 8.29677C14.3787 8.29677 14.032 8.39985 13.774 8.60997C13.5159 8.82009 13.3849 9.0976 13.3849 9.45044C13.3772 9.77157 13.512 10.0768 13.7508 10.283C13.9935 10.505 14.3017 10.616 14.6638 10.616C15.0913 10.616 15.4303 10.4217 15.6884 10.0332H15.7153V10.505H16.3085V8.40778C16.3085 7.96772 16.1776 7.61884 15.9118 7.36908ZM14.2294 9.87858C14.1023 9.78343 14.0252 9.62881 14.0252 9.4623C14.0252 9.27597 14.11 9.12136 14.2756 8.99846C14.4451 8.87556 14.657 8.81213 14.9075 8.81213C15.2542 8.80816 15.5239 8.88745 15.7165 9.04603C15.7165 9.31562 15.6125 9.54952 15.4083 9.74775C15.2234 9.93805 14.9729 10.0451 14.711 10.0451C14.5376 10.0491 14.3681 9.98958 14.2294 9.87858ZM17.6409 11.9996L19.7132 7.10347H19.0391L18.08 9.54561H18.0685L17.0862 7.10347H16.4121L17.7718 10.287L17.0015 11.9996H17.6409Z" fill="#555555" fill-opacity="0.5"/>
<path d="M8.72032 8.05538C8.72032 7.86112 8.70492 7.66686 8.6741 7.47656H6.05859V8.57473H7.55702C7.49539 8.92757 7.29509 9.24473 7.00233 9.44296V10.1566H7.896C8.41987 9.66101 8.72032 8.92757 8.72032 8.05538Z" fill="#349DDE"/>
<path d="M6.05887 10.8464C6.80615 10.8464 7.43788 10.5927 7.89627 10.1566L7.00261 9.44297C6.75223 9.61741 6.43251 9.71652 6.05887 9.71652C5.33469 9.71652 4.72222 9.21303 4.50266 8.53906H3.58203V9.27646C4.05198 10.2398 5.01112 10.8464 6.05887 10.8464Z" fill="#28A745"/>
<path d="M4.50354 8.53858C4.38797 8.18573 4.38797 7.80118 4.50354 7.44437V6.71094H3.58277C3.18595 7.51573 3.18595 8.46721 3.58277 9.27201L4.50354 8.53858Z" fill="#FED326"/>
<path d="M6.05887 6.26678C6.45562 6.25885 6.83697 6.41346 7.12202 6.69494L7.91553 5.87825C7.41092 5.39458 6.74838 5.12896 6.05887 5.13689C5.01112 5.13689 4.05198 5.74743 3.58203 6.7108L4.50266 7.4482C4.72222 6.77027 5.33469 6.26678 6.05887 6.26678Z" fill="#F1531A"/>
</svg>
