<svg width="18" height="18" viewBox="0 0 18 18" fill="none" xmlns="http://www.w3.org/2000/svg">
<path d="M7.89844 5.94043C7.89821 6.99773 7.04239 7.84473 5.97754 7.84473L3.4209 7.84473C2.36357 7.8447 1.50121 6.99771 1.50098 5.94043L1.50098 3.40527C1.50098 2.35529 2.36343 1.50003 3.4209 1.5L5.97754 1.5C7.04254 1.5 7.89844 2.35527 7.89844 3.40527L7.89844 5.94043ZM7.89844 14.5947C7.89844 15.6447 7.04253 16.5 5.97754 16.5L3.4209 16.5C2.36343 16.5 1.50098 15.6447 1.50098 14.5947L1.50098 12.0605C1.50098 11.0031 2.36343 10.1553 3.4209 10.1553L5.97754 10.1553C7.04254 10.1553 7.89844 11.003 7.89844 12.0605L7.89844 14.5947ZM16.5 5.94043C16.4998 6.99773 15.6372 7.84473 14.5791 7.84473L12.0225 7.84473C10.9576 7.8447 10.1028 6.99771 10.1025 5.94043L10.1025 3.40527C10.1025 2.35529 10.9575 1.50003 12.0225 1.5L14.5791 1.5C15.6373 1.5 16.5 2.35527 16.5 3.40527L16.5 5.94043ZM16.5 14.5947C16.5 15.6447 15.6373 16.5 14.5791 16.5L12.0225 16.5C10.9575 16.5 10.1025 15.6447 10.1025 14.5947L10.1025 12.0605C10.1025 11.0031 10.9575 10.1553 12.0225 10.1553L14.5791 10.1553C15.6373 10.1553 16.5 11.003 16.5 12.0605L16.5 14.5947Z" fill="white"/>
</svg>
