<svg width="46" height="72" viewBox="0 0 46 72" fill="none" xmlns="http://www.w3.org/2000/svg">
<path d="M6.6645e-07 20.5242C0.139701 20.5209 0.103986 20.4119 0.10938 20.3445C0.175213 19.5229 0.387866 18.7394 0.731815 17.9931C1.15413 17.0768 1.75851 16.3102 2.62588 15.7749C3.35746 15.3235 4.15902 15.1332 5.0149 15.1735C6.273 15.2328 7.34203 15.7338 8.27102 16.5695C9.27821 17.4754 9.91375 18.6047 10.199 19.9144C10.5927 21.7222 10.9351 23.5411 11.2995 25.3552C11.6543 27.1217 12.0402 28.8802 12.627 30.5876C13.1007 31.9659 13.6905 33.2859 14.5842 34.4498C15.4528 35.5811 16.5388 36.4129 17.9131 36.8386C18.7381 37.0941 19.5854 37.1706 20.4448 37.1472C21.4128 37.1209 22.365 37.0022 23.2913 36.7017C24.695 36.2463 25.7844 35.381 26.6177 34.1752C27.2992 33.1892 27.7657 32.0988 28.1552 30.9727C28.7614 29.2205 29.1966 27.4206 29.6382 25.6222C30.1325 23.6092 30.6583 21.6038 31.135 19.5868C31.5745 17.7273 31.9753 15.8584 32.3784 13.9905C32.8155 11.965 33.2064 9.92904 33.7782 7.93493C34.0561 6.96597 34.382 6.01305 34.8219 5.10551C35.2773 4.16587 35.8424 3.30111 36.6647 2.63272C37.5053 1.94943 38.475 1.62125 39.5487 1.53935C40.3589 1.47755 41.1524 1.55173 41.9363 1.7386C42.6504 1.90881 43.3002 2.2163 43.8424 2.72747C44.4992 3.34661 44.8474 4.12505 45.0111 4.99656C45.216 6.08796 45.145 7.17926 44.9861 8.26817C44.7412 9.94616 44.2648 11.569 43.7901 13.1906C43.4582 14.3241 43.2563 15.4811 43.0833 16.6453C42.9017 17.8677 42.721 19.0904 42.5545 20.3149C42.4382 21.1709 42.3384 22.0294 42.2459 22.8884C42.1318 23.947 42.0248 25.0066 41.9301 26.0672C41.8541 26.9178 41.7973 27.7701 41.739 28.6222C41.6931 29.2939 41.663 29.9667 41.6167 30.6384C41.5091 32.1964 41.4767 33.7567 41.5021 35.3171C41.5208 36.4635 41.5728 37.6097 41.6309 38.7549C41.6777 39.678 41.7499 40.5999 41.8218 41.5216C41.9085 42.6329 42.0087 43.7433 42.0992 44.8543C42.1702 45.7257 42.2257 46.5984 42.3055 47.4689C42.4302 48.8289 42.564 50.1882 42.7047 51.5467C42.8247 52.7059 42.9498 53.8647 43.0908 55.0215C43.2977 56.7187 43.5806 58.4033 43.9469 60.0743C44.2074 61.2625 44.4353 62.4572 44.5327 63.6731C44.6102 64.6412 44.5811 65.6012 44.3534 66.5493C44.1347 67.4606 43.7116 68.2652 43.058 68.9354C42.6777 69.3253 42.2392 69.6493 41.751 69.8984C41.1155 70.2226 40.484 70.5566 39.7937 70.7553C38.615 71.0947 37.4383 71.1286 36.2675 70.722C35.4958 70.4539 34.8201 70.026 34.2272 69.4653C33.2137 68.5071 32.5219 67.3339 31.9658 66.0698C31.3591 64.6909 30.9737 63.2442 30.6348 61.7811C30.0423 59.2229 29.4626 56.6612 28.708 54.1438C28.3664 53.0044 27.9698 51.8873 27.4302 50.8233C26.752 49.4861 25.7525 48.4771 24.4247 47.785C23.655 47.3838 22.8685 47.0338 22.0148 46.8521C20.228 46.4719 18.653 46.8904 17.2844 48.1003C16.3856 48.8948 15.7479 49.8798 15.2432 50.9529C14.4962 52.5414 14.0605 54.2242 13.832 55.9594C13.7207 56.8052 13.6566 57.6576 13.5853 58.5082C13.3935 60.7956 13.1245 63.0696 12.454 65.2762C12.0357 66.6526 11.4878 67.9675 10.5941 69.1125C9.93826 69.9528 9.14442 70.6173 8.13668 70.9975C7.55869 71.2156 6.96222 71.3313 6.34079 71.3409C5.54128 71.3532 4.75651 71.2834 3.98749 71.0517C2.40993 70.5763 1.37496 69.5541 0.907768 67.9734C0.622558 67.0084 0.576715 66.0205 0.646587 65.0165C0.793701 62.9026 1.3807 60.9062 2.1745 58.9576C2.70798 57.6481 3.05117 56.282 3.32603 54.8979C3.58269 53.6055 3.78213 52.3046 3.8784 50.9894C3.91874 50.4383 3.97968 49.8877 3.99363 49.336C4.02697 48.017 4.06692 46.6971 4.05011 45.3782C4.03218 43.9715 3.9317 42.567 3.75996 41.1693C3.64233 40.2121 3.54189 39.2517 3.38671 38.3005C3.17957 37.0306 2.9412 35.7654 2.69045 34.5033C2.25481 32.3106 1.59858 30.1727 1.05474 28.0068C0.689549 26.5524 0.391712 25.0847 0.195499 23.5974C0.15347 23.2789 0.140055 22.9566 0.108124 22.6366C0.102723 22.5824 0.0701491 22.531 0.0250652 22.4856C7.128e-07 21.8461 6.90122e-07 21.1993 6.6645e-07 20.5242Z" fill="white"/>
<path d="M20.9983 -3.31904e-07C20.9826 0.14362 21.1036 0.096801 21.1602 0.108681C21.4939 0.17876 21.8335 0.225577 22.1627 0.312012C23.689 0.712662 24.9983 1.49498 26.0842 2.63501C27.3123 3.92418 28.0686 5.45795 28.345 7.22135C28.6242 9.0022 28.401 10.7241 27.5999 12.336C26.3584 14.8345 24.3619 16.434 21.6227 16.9736C18.9232 17.5052 16.4863 16.8289 14.4137 15.0088C12.8951 13.6753 11.9726 11.9809 11.6551 9.97299C11.3719 8.18292 11.6033 6.45891 12.3916 4.82646C13.1663 3.2222 14.337 1.97552 15.8897 1.09757C16.8013 0.582189 17.7771 0.253695 18.8149 0.110306C18.8809 0.101196 18.9431 0.0653708 18.9897 0.0209868C19.6383 -2.8779e-07 20.3041 -3.07547e-07 20.9983 -3.31904e-07Z" fill="#E52A00"/>
</svg>
