<svg width="25" height="24" viewBox="0 0 25 24" fill="none" xmlns="http://www.w3.org/2000/svg">
<path d="M21.6912 7.43982H5.53551C5.3366 7.43982 5.14583 7.36268 5.00518 7.22537C4.86453 7.08806 4.78551 6.90182 4.78551 6.70763C4.78551 6.51344 4.86453 6.3272 5.00518 6.18989C5.14583 6.05258 5.3366 5.97544 5.53551 5.97544H18.7145V3.22971C18.7145 2.83945 18.5353 2.47555 18.2233 2.23173C18.0699 2.11162 17.8908 2.02685 17.6993 1.98375C17.5077 1.94064 17.3087 1.94031 17.117 1.98278L3.02151 5.07264C2.73098 5.13535 2.4712 5.29326 2.28536 5.52012C2.09952 5.74697 1.99882 6.02909 2.00001 6.31957V20.6728C2.00001 21.3771 2.58726 21.9512 3.30876 21.9512H21.6912C22.4128 21.9512 23 21.3779 23 20.6728V8.7175C23 8.01313 22.4128 7.43982 21.6912 7.43982ZM19.3295 16.0006C18.6283 16.0006 18.0583 15.4434 18.0583 14.7588C18.0583 14.0742 18.629 13.517 19.3295 13.517C20.0315 13.517 20.6015 14.0742 20.6015 14.7588C20.6015 15.4434 20.0315 16.0006 19.3295 16.0006Z" fill="white"/>
<path d="M7.5 12.982C7.51816 12.9816 7.51352 12.9674 7.51422 12.9587C7.52277 12.8521 7.55041 12.7504 7.59511 12.6535C7.65 12.5346 7.72856 12.4352 7.84129 12.3657C7.93637 12.3071 8.04055 12.2824 8.15179 12.2877C8.31531 12.2954 8.45425 12.3604 8.575 12.4688C8.7059 12.5864 8.7885 12.7329 8.82558 12.9029C8.87675 13.1375 8.92125 13.3735 8.96861 13.6089C9.01472 13.8381 9.06488 14.0663 9.14115 14.2879C9.20271 14.4668 9.27937 14.638 9.39552 14.7891C9.50841 14.9359 9.64957 15.0438 9.82819 15.0991C9.93542 15.1322 10.0455 15.1421 10.1572 15.1391C10.283 15.1357 10.4068 15.1203 10.5272 15.0813C10.7096 15.0222 10.8512 14.9099 10.9595 14.7534C11.0481 14.6255 11.1087 14.484 11.1594 14.3379C11.2382 14.1105 11.2947 13.8769 11.3521 13.6436C11.4164 13.3823 11.4847 13.1221 11.5467 12.8604C11.6038 12.6191 11.6559 12.3765 11.7083 12.1341C11.7651 11.8713 11.8159 11.6071 11.8902 11.3483C11.9263 11.2226 11.9687 11.0989 12.0258 10.9812C12.085 10.8592 12.1585 10.747 12.2654 10.6603C12.3746 10.5716 12.5006 10.529 12.6402 10.5184C12.7455 10.5104 12.8486 10.52 12.9505 10.5443C13.0433 10.5663 13.1278 10.6062 13.1983 10.6726C13.2836 10.7529 13.3289 10.8539 13.3501 10.967C13.3768 11.1087 13.3676 11.2503 13.3469 11.3916C13.3151 11.6093 13.2531 11.8199 13.1914 12.0303C13.1483 12.1774 13.1221 12.3276 13.0996 12.4786C13.076 12.6373 13.0525 12.7959 13.0309 12.9548C13.0157 13.0659 13.0028 13.1773 12.9907 13.2888C12.9759 13.4262 12.962 13.5637 12.9497 13.7013C12.9398 13.8117 12.9325 13.9223 12.9249 14.0328C12.9189 14.12 12.915 14.2073 12.909 14.2945C12.895 14.4967 12.8908 14.6991 12.8941 14.9016C12.8965 15.0504 12.9033 15.1991 12.9108 15.3477C12.9169 15.4675 12.9263 15.5872 12.9356 15.7068C12.9469 15.851 12.9599 15.9951 12.9717 16.1392C12.9809 16.2523 12.9881 16.3656 12.9985 16.4785C13.0147 16.655 13.0321 16.8314 13.0504 17.0077C13.066 17.1581 13.0822 17.3085 13.1006 17.4586C13.1275 17.6788 13.1642 17.8974 13.2118 18.1143C13.2457 18.2685 13.2753 18.4235 13.288 18.5813C13.298 18.7069 13.2943 18.8315 13.2647 18.9545C13.2362 19.0728 13.1813 19.1772 13.0963 19.2642C13.0469 19.3148 12.9899 19.3568 12.9264 19.3891C12.8438 19.4312 12.7618 19.4745 12.672 19.5003C12.5188 19.5444 12.3659 19.5488 12.2137 19.496C12.1134 19.4612 12.0256 19.4057 11.9485 19.3329C11.8168 19.2086 11.7269 19.0564 11.6546 18.8923C11.5758 18.7134 11.5257 18.5256 11.4816 18.3358C11.4046 18.0038 11.3293 17.6714 11.2312 17.3447C11.1868 17.1968 11.1353 17.0519 11.0651 16.9138C10.977 16.7403 10.8471 16.6094 10.6745 16.5195C10.5745 16.4675 10.4722 16.4221 10.3613 16.3985C10.1291 16.3492 9.92435 16.4035 9.74647 16.5605C9.62965 16.6636 9.54677 16.7914 9.48118 16.9306C9.38409 17.1368 9.32745 17.3551 9.29777 17.5803C9.28329 17.6901 9.27496 17.8007 9.26569 17.9111C9.24077 18.2079 9.20581 18.503 9.11866 18.7893C9.0643 18.9679 8.99308 19.1386 8.87693 19.2872C8.79169 19.3962 8.68851 19.4824 8.55753 19.5318C8.48241 19.5601 8.40489 19.5751 8.32412 19.5763C8.22021 19.5779 8.11821 19.5689 8.01826 19.5388C7.81322 19.4771 7.67871 19.3444 7.61798 19.1393C7.58091 19.0141 7.57496 18.8859 7.58404 18.7556C7.60316 18.4813 7.67945 18.2222 7.78262 17.9694C7.85196 17.7994 7.89656 17.6222 7.93229 17.4426C7.96565 17.2748 7.99157 17.106 8.00408 16.9354C8.00932 16.8639 8.01724 16.7924 8.01906 16.7208C8.02339 16.5497 8.02858 16.3784 8.0264 16.2072C8.02407 16.0247 8.01101 15.8424 7.98869 15.6611C7.9734 15.5368 7.96034 15.4122 7.94017 15.2888C7.91325 15.124 7.88227 14.9598 7.84968 14.796C7.79306 14.5115 7.70777 14.2341 7.63709 13.953C7.58962 13.7643 7.55091 13.5738 7.52541 13.3808C7.51995 13.3395 7.5182 13.2976 7.51405 13.2561C7.51335 13.2491 7.50912 13.2424 7.50326 13.2365C7.5 13.1535 7.5 13.0696 7.5 12.982Z" fill="#1B1B1B"/>
<path d="M10.2294 10.3242C10.2274 10.3429 10.2431 10.3368 10.2505 10.3383C10.2938 10.3474 10.338 10.3535 10.3808 10.3647C10.5791 10.4167 10.7493 10.5182 10.8905 10.6662C11.0501 10.8334 11.1484 11.0325 11.1843 11.2613C11.2206 11.4924 11.1916 11.7159 11.0875 11.925C10.9261 12.2492 10.6666 12.4568 10.3106 12.5268C9.95973 12.5958 9.643 12.5081 9.37362 12.2719C9.17624 12.0988 9.05635 11.8789 9.01508 11.6184C8.97828 11.3861 9.00834 11.1624 9.1108 10.9505C9.21149 10.7424 9.36365 10.5806 9.56546 10.4666C9.68393 10.3998 9.81077 10.3571 9.94565 10.3385C9.95422 10.3374 9.96231 10.3327 9.96838 10.3269C10.0527 10.3242 10.1392 10.3242 10.2294 10.3242Z" fill="#E52A00"/>
</svg>
