<svg width="47" height="70" viewBox="0 0 47 70" fill="none" xmlns="http://www.w3.org/2000/svg">
<path d="M9.34591 63.7605C9.29906 63.9947 9.25221 64.229 9.20537 64.4632C9.20537 64.6506 9.20537 64.8614 9.20537 65.0956L8.78374 66.5713C8.69005 66.7587 8.61978 66.8758 8.57293 66.9227L8.36212 67.3443C8.12789 67.8596 7.70628 68.2812 7.09727 68.6091C5.97295 69.1713 4.77836 69.3118 3.5135 69.0308C2.71711 68.9371 2.08467 68.7028 1.61621 68.3281C1.14774 68.0001 0.819816 67.6019 0.63243 67.1335C0.445043 66.665 0.304504 66.1965 0.210811 65.7281C0.0702709 65.2596 0 64.838 0 64.4632L0 5.27025C0 4.94232 0 4.66124 0 4.42701C0.0468466 4.14593 0.0936937 3.88827 0.14054 3.65404C0.187387 3.32611 0.234234 3.04503 0.281081 2.8108C0.374774 2.57657 0.468466 2.31891 0.562159 2.03783C0.702699 1.56936 0.960359 1.19459 1.33513 0.91351C1.89729 0.49189 2.43603 0.257657 2.95134 0.210811C3.27927 0.117116 3.58377 0.0702691 3.86485 0.0702691C4.14593 0.023423 4.47386 0 4.84863 0C5.50448 0 6.25403 0.187387 7.09727 0.562161C7.75312 0.936935 8.22158 1.45225 8.50266 2.1081C8.97113 3.04503 9.20537 3.9117 9.20537 4.70809C9.25221 5.17656 9.27564 5.87926 9.27564 6.81619C9.32248 7.75312 9.34591 8.45582 9.34591 8.92429V9.20537C9.4396 10.7045 9.48645 31.9985 9.48645 33.4039C9.48645 34.7624 9.46302 36.2615 9.41618 37.9012C9.41618 39.4939 9.39275 41.0399 9.34591 42.539C9.34591 43.9912 9.34591 45.4435 9.34591 46.8957L9.34591 61.6524C9.34591 61.8398 9.34591 62.0272 9.34591 62.2146C9.39275 62.3551 9.41618 62.5191 9.41618 62.7065C9.41618 63.1749 9.39275 63.5263 9.34591 63.7605Z" fill="white"/>
<path d="M19.8051 39.7985C21.2105 39.0958 22.6862 38.6039 24.2322 38.3228C25.7781 37.9949 27.3006 37.9246 28.7997 38.112C30.3456 38.2525 31.8213 38.6507 33.2267 39.3066C34.6321 39.9156 35.9438 40.8057 37.1618 41.9768C38.3798 43.1948 39.3168 44.53 39.9726 45.9822C40.6285 47.4345 41.0969 49.0507 41.378 50.8308C41.5654 52.0488 41.8699 53.1732 42.2915 54.2038C42.7132 55.2344 43.1582 56.265 43.6267 57.2957C44.142 58.3263 44.6105 59.3569 45.0321 60.3876C45.5005 61.4182 45.8753 62.4957 46.1564 63.62C46.3906 64.6974 46.2969 65.7515 45.8753 66.7821C45.5005 67.7659 44.7041 68.3749 43.4861 68.6091C42.7834 68.7497 42.1042 68.7028 41.4483 68.4686C40.8393 68.1875 40.2771 67.8127 39.7618 67.3443C39.2465 66.829 38.778 66.2902 38.3564 65.7281C37.9817 65.1191 37.6303 64.5569 37.3024 64.0416C36.2249 65.447 35.0537 66.5479 33.7889 67.3443C32.524 68.0938 31.0015 68.5857 29.2213 68.8199C27.7222 69.0073 26.2934 69.0542 24.9349 68.9605C23.5763 68.8668 22.1241 68.6091 20.5781 68.1875C18.5637 67.6722 16.9007 66.7821 15.589 65.5173C14.3241 64.2056 13.3403 62.7065 12.6376 61.02C11.9818 59.2867 11.6304 57.4362 11.5836 55.4687C11.5367 53.5011 11.771 51.557 12.2863 49.6362C12.9421 47.1065 13.9259 45.0453 15.2376 43.4525C16.5493 41.8597 18.0718 40.6417 19.8051 39.7985ZM21.5619 48.02C20.906 48.6759 20.3907 49.4489 20.016 50.3389C19.6412 51.229 19.407 52.166 19.3133 53.1497C19.2664 54.1335 19.3601 55.1173 19.5943 56.1011C19.8286 57.0849 20.2033 57.9515 20.7187 58.7011C21.1871 59.3569 21.9835 59.9191 23.1078 60.3876C24.2322 60.8092 25.4033 61.0668 26.6213 61.1605C28.0267 61.2542 29.2447 60.8794 30.2754 60.0362C31.3528 59.193 32.1492 58.1389 32.6646 56.8741C33.2267 55.5623 33.4844 54.1804 33.4375 52.7281C33.3907 51.229 32.9925 49.8705 32.2429 48.6525C31.6808 47.7624 30.9312 47.1065 29.9943 46.6849C29.1042 46.2633 28.1439 46.0525 27.1132 46.0525C26.0826 46.0056 25.052 46.1696 24.0213 46.5444C23.0376 46.8723 22.2178 47.3642 21.5619 48.02Z" fill="white"/>
</svg>
