<svg width="15" height="17" viewBox="0 0 15 17" fill="none" xmlns="http://www.w3.org/2000/svg">
<path d="M7.07812 0C10.9636 0.000134755 14.167 3.0985 14.167 6.93164C14.1669 8.86318 13.4638 10.6568 12.3076 12.1768C11.0321 13.8531 9.45989 15.3134 7.69043 16.46C7.2854 16.725 6.92011 16.745 6.47559 16.46C4.69588 15.3134 3.12303 13.8533 1.8584 12.1768C0.701336 10.6568 4.25282e-05 8.86318 0 6.93164C0 3.09842 3.20349 0 7.07812 0ZM7.07812 4.81445C5.7933 4.81445 4.74512 5.87333 4.74512 7.14746C4.74521 8.43151 5.79336 9.44141 7.07812 9.44141C8.36362 9.44127 9.42178 8.43143 9.42188 7.14746C9.42188 5.87341 8.36367 4.81459 7.07812 4.81445Z" fill="#555555" fill-opacity="0.5"/>
</svg>
