<svg width="72" height="72" viewBox="0 0 72 72" fill="none" xmlns="http://www.w3.org/2000/svg">
<rect width="71.0945" height="71.0945" rx="14.2189" fill="white"/>
<path d="M22.5139 26.8722C22.5946 26.8702 22.574 26.8074 22.5771 26.7685C22.6151 26.2948 22.7379 25.843 22.9366 25.4127C23.1805 24.8843 23.5295 24.4423 24.0304 24.1337C24.4529 23.8734 24.9158 23.7636 25.4101 23.7869C26.1367 23.8211 26.7541 24.11 27.2906 24.5918C27.8723 25.1142 28.2393 25.7653 28.4041 26.5205C28.6314 27.5629 28.8292 28.6117 29.0396 29.6578C29.2445 30.6763 29.4674 31.6903 29.8063 32.6749C30.0799 33.4696 30.4205 34.2307 30.9366 34.9018C31.4382 35.5541 32.0654 36.0338 32.8591 36.2792C33.3356 36.4266 33.8249 36.4707 34.3213 36.4572C34.8803 36.442 35.4302 36.3736 35.9652 36.2003C36.7758 35.9377 37.405 35.4388 37.8862 34.7435C38.2798 34.1749 38.5492 33.5462 38.7742 32.8969C39.1243 31.8865 39.3756 30.8487 39.6306 29.8117C39.9161 28.651 40.2197 27.4947 40.4951 26.3316C40.7489 25.2594 40.9804 24.1818 41.2132 23.1047C41.4656 21.9368 41.6914 20.7628 42.0216 19.613C42.1821 19.0543 42.3703 18.5048 42.6243 17.9815C42.8874 17.4397 43.2137 16.9411 43.6886 16.5557C44.1741 16.1617 44.7341 15.9724 45.3542 15.9252C45.8221 15.8896 46.2803 15.9324 46.7331 16.0401C47.1455 16.1382 47.5207 16.3156 47.8339 16.6103C48.2132 16.9673 48.4143 17.4162 48.5088 17.9187C48.6272 18.548 48.5862 19.1773 48.4944 19.8051C48.353 20.7727 48.0778 21.7085 47.8036 22.6435C47.612 23.2971 47.4954 23.9642 47.3955 24.6355C47.2906 25.3404 47.1862 26.0454 47.0901 26.7515C47.0229 27.245 46.9653 27.7401 46.9118 28.2353C46.846 28.8458 46.7842 29.4568 46.7295 30.0683C46.6856 30.5588 46.6528 31.0502 46.6191 31.5415C46.5926 31.9289 46.5752 32.3168 46.5485 32.7041C46.4863 33.6025 46.4676 34.5022 46.4823 35.4019C46.4931 36.0629 46.5231 36.7239 46.5567 37.3842C46.5837 37.9165 46.6254 38.4481 46.6669 38.9795C46.717 39.6203 46.7749 40.2606 46.8271 40.9012C46.8682 41.4036 46.9002 41.9069 46.9463 42.4088C47.0183 43.193 47.0956 43.9768 47.1768 44.7602C47.2462 45.4285 47.3184 46.0968 47.3998 46.7638C47.5193 47.7424 47.6827 48.7137 47.8943 49.6772C48.0447 50.3624 48.1763 51.0513 48.2325 51.7524C48.2773 52.3106 48.2605 52.8641 48.129 53.4109C48.0027 53.9363 47.7583 54.4003 47.3809 54.7867C47.1612 55.0115 46.908 55.1984 46.6261 55.342C46.259 55.5289 45.8943 55.7215 45.4957 55.8361C44.8149 56.0318 44.1354 56.0513 43.4592 55.8169C43.0135 55.6623 42.6233 55.4155 42.2809 55.0923C41.6956 54.5397 41.296 53.8633 40.9749 53.1344C40.6245 52.3393 40.4019 51.5051 40.2062 50.6614C39.864 49.1863 39.5292 47.7092 39.0934 46.2577C38.8961 45.6007 38.6671 44.9565 38.3555 44.343C37.9638 43.572 37.3866 42.9901 36.6197 42.5911C36.1752 42.3598 35.721 42.1579 35.228 42.0532C34.1961 41.834 33.2864 42.0753 32.496 42.7729C31.9769 43.231 31.6087 43.799 31.3172 44.4178C30.8858 45.3337 30.6341 46.304 30.5022 47.3046C30.4379 47.7923 30.4009 48.2838 30.3597 48.7743C30.249 50.0932 30.0936 51.4044 29.7064 52.6767C29.4648 53.4704 29.1484 54.2286 28.6323 54.8888C28.2535 55.3734 27.795 55.7565 27.213 55.9757C26.8792 56.1015 26.5348 56.1682 26.1759 56.1737C25.7141 56.1808 25.2609 56.1406 24.8168 56.007C23.9057 55.7329 23.308 55.1434 23.0382 54.232C22.8735 53.6756 22.847 53.1059 22.8873 52.527C22.9723 51.3081 23.3113 50.1569 23.7697 49.0334C24.0778 48.2783 24.276 47.4905 24.4348 46.6925C24.583 45.9472 24.6982 45.1972 24.7538 44.4388C24.7771 44.121 24.8123 43.8036 24.8203 43.4854C24.8396 42.7249 24.8627 41.9638 24.8529 41.2033C24.8426 40.3922 24.7846 39.5823 24.6854 38.7764C24.6174 38.2245 24.5594 37.6707 24.4698 37.1222C24.3502 36.39 24.2125 35.6604 24.0677 34.9327C23.8161 33.6684 23.4371 32.4356 23.1231 31.1867C22.9121 30.3481 22.7401 29.5018 22.6268 28.6442C22.6025 28.4605 22.5948 28.2747 22.5764 28.0902C22.5732 28.0589 22.5544 28.0293 22.5284 28.0031C22.5139 27.6344 22.5139 27.2614 22.5139 26.8722Z" fill="#1B1B1B"/>
<path d="M34.6404 15.0621C34.6313 15.1449 34.7012 15.118 34.7339 15.1248C34.9266 15.1652 35.1227 15.1922 35.3129 15.242C36.1944 15.4731 36.9505 15.9242 37.5777 16.5815C38.2869 17.3249 38.7237 18.2093 38.8833 19.2261C39.0445 20.2529 38.9156 21.2458 38.453 22.1753C37.736 23.6159 36.5829 24.5382 35.001 24.8493C33.442 25.1559 32.0346 24.7659 30.8376 23.7164C29.9606 22.9475 29.4279 21.9705 29.2445 20.8127C29.081 19.7805 29.2146 18.7864 29.6698 17.8451C30.1172 16.9201 30.7933 16.2012 31.6901 15.695C32.2165 15.3978 32.7801 15.2084 33.3795 15.1257C33.4175 15.1205 33.4535 15.0998 33.4804 15.0742C33.855 15.0621 34.2395 15.0621 34.6404 15.0621Z" fill="#E52A00"/>
</svg>
