<svg width="23" height="16" viewBox="0 0 23 16" fill="none" xmlns="http://www.w3.org/2000/svg">
<rect width="23" height="16" rx="2.5" fill="white"/>
<rect x="0.5" y="0.5" width="22" height="15" rx="2" stroke="white" stroke-opacity="0.5"/>
<path fill-rule="evenodd" clip-rule="evenodd" d="M11.7133 11.6973C10.8357 12.4335 9.69736 12.8779 8.4535 12.8779C5.67785 12.8779 3.42773 10.6649 3.42773 7.93505C3.42773 5.20518 5.67785 2.99219 8.4535 2.99219C9.69737 2.99219 10.8357 3.43661 11.7133 4.17282C12.5909 3.43662 13.7292 2.9922 14.973 2.9922C17.7487 2.9922 19.9988 5.2052 19.9988 7.93507C19.9988 10.6649 17.7487 12.8779 14.973 12.8779C13.7292 12.8779 12.5908 12.4335 11.7133 11.6973Z" fill="#E52A00"/>
<path fill-rule="evenodd" clip-rule="evenodd" d="M11.7136 11.6976C12.7945 10.7909 13.4799 9.44172 13.4799 7.93505C13.4799 6.42838 12.7945 5.07916 11.7136 4.17255C12.5912 3.4365 13.7294 2.99219 14.9731 2.99219C17.7487 2.99219 19.9989 5.20518 19.9989 7.93505C19.9989 10.6649 17.7487 12.8779 14.9731 12.8779C13.7294 12.8779 12.5912 12.4336 11.7136 11.6976Z" fill="#FED326"/>
<path fill-rule="evenodd" clip-rule="evenodd" d="M11.7129 11.6978C10.6324 10.7912 9.94727 9.4422 9.94727 7.93581C9.94727 6.42942 10.6324 5.08043 11.7129 4.17383C12.7934 5.08043 13.4785 6.42942 13.4785 7.93581C13.4785 9.4422 12.7934 10.7912 11.7129 11.6978Z" fill="#F1531A"/>
</svg>
