<svg width="32" height="32" viewBox="0 0 32 32" fill="none" xmlns="http://www.w3.org/2000/svg">
<path d="M24.9032 24.4253C23.7965 25.5948 22.4704 26.5348 21.0005 27.1917C19.5305 27.8486 17.9456 28.2096 16.3362 28.254C14.7267 28.2984 13.1243 28.0253 11.6204 27.4504C10.1165 26.8756 8.74054 26.0101 7.5711 24.9034C6.40167 23.7968 5.46166 22.4706 4.80475 21.0007C4.14783 19.5308 3.78687 17.9458 3.74247 16.3364C3.69808 14.727 3.97112 13.1246 4.54601 11.6206C5.1209 10.1167 5.98637 8.74078 7.09302 7.57135C8.19967 6.40192 9.52582 5.46191 10.9958 4.80499C12.4657 4.14808 14.0506 3.78712 15.66 3.74272C17.2695 3.69833 18.8719 3.97137 20.3758 4.54626C21.8797 5.12115 23.2557 5.98662 24.4251 7.09327C25.5945 8.19992 26.5345 9.52607 27.1915 10.996C27.8484 12.4659 28.2093 14.0509 28.2537 15.6603C28.2981 17.2697 28.0251 18.8721 27.4502 20.3761C26.8753 21.88 26.0098 23.2559 24.9032 24.4253L24.9032 24.4253Z" stroke="white" stroke-width="6.66895"/>
<path d="M6.56441 8.16742C7.80021 6.67871 9.3708 5.50361 11.1478 4.7382C12.9247 3.97279 14.8576 3.63881 16.7884 3.76355C18.7192 3.88829 20.593 4.46821 22.2567 5.45591C23.9204 6.44361 25.3267 7.81103 26.3607 9.44639" stroke="#E52A00" stroke-width="6.66895" stroke-linecap="round"/>
</svg>
