<svg width="28" height="27" viewBox="0 0 28 27" fill="none" xmlns="http://www.w3.org/2000/svg">
<g clip-path="url(#clip0_34793_20191)">
<path fill-rule="evenodd" clip-rule="evenodd" d="M5.30906 16.0153H7.10472C7.10472 16.5146 7.50942 16.9193 8.00873 16.9193H10.336C10.8352 16.9193 11.24 16.5146 11.24 16.0153C11.24 15.516 10.8352 15.1112 10.336 15.1112L12.273 13.5121H22.8113L21.0632 8.67565H14.7275V6.6416L21.2749 6.6416C22.0016 6.6416 22.6559 7.10079 22.9031 7.78439L24.4014 11.9296C24.4298 11.7899 24.4725 11.6414 24.5296 11.475C24.588 11.3051 24.7948 11.173 24.9674 11.173H27.2103C27.3829 11.173 27.5897 11.3051 27.6481 11.475C27.8752 12.1363 27.8751 12.5149 27.648 13.1763C27.5897 13.3461 27.3828 13.4782 27.2102 13.4782H24.9674C24.9662 13.4782 24.9651 13.4781 24.9639 13.4779C24.9629 13.4778 24.9619 13.4776 24.9608 13.4776L24.9947 13.5713C25.452 13.7233 25.7822 14.1538 25.7822 14.6622V22.2598C25.7822 22.3324 25.7679 22.4042 25.7401 22.4713C25.7124 22.5384 25.6716 22.5993 25.6203 22.6506C25.569 22.702 25.508 22.7427 25.441 22.7705C25.3739 22.7982 25.302 22.8125 25.2295 22.8125H22.4476C22.301 22.8125 22.1604 22.7543 22.0568 22.6506C21.9531 22.547 21.8949 22.4064 21.8949 22.2598V19.5691H9.19636V22.2598C9.19636 22.4064 9.13813 22.547 9.03447 22.6506C8.93081 22.7543 8.79022 22.8125 8.64363 22.8125H5.8618C5.78921 22.8125 5.71733 22.7982 5.65026 22.7705C5.5832 22.7427 5.52226 22.702 5.47094 22.6506C5.41961 22.5993 5.37889 22.5384 5.35112 22.4713C5.32334 22.4042 5.30905 22.3324 5.30906 22.2598V16.0153ZM23.0827 16.9193H20.7555C20.2562 16.9193 19.8514 16.5146 19.8514 16.0153C19.8514 15.5159 20.2562 15.1112 20.7555 15.1112H23.0827C23.5821 15.1112 23.9867 15.516 23.9867 16.0153C23.9867 16.5146 23.582 16.9193 23.0827 16.9193Z" fill="white"/>
</g>
<path fill-rule="evenodd" clip-rule="evenodd" d="M9.82656 2.16055V1.23153C9.82656 0.991602 9.63183 0.796875 9.3919 0.796875C9.15197 0.796875 8.95724 0.991602 8.95724 1.23153V3.12259C8.95724 3.27327 9.03896 3.40019 9.15603 3.47785C9.08706 3.52422 9.00882 3.55725 8.91957 3.55725C8.67964 3.55725 8.48492 3.36252 8.48492 3.12259V1.8673C8.02012 1.81166 7.5136 1.78326 6.95549 1.78326C6.29829 1.78326 5.71237 1.82267 5.18556 1.90207V1.23153C5.18556 0.991602 4.99084 0.796875 4.7509 0.796875C4.51097 0.796875 4.31624 0.991602 4.31624 1.23153V3.12259C4.31624 3.27327 4.39796 3.40019 4.51503 3.47785C4.44606 3.52422 4.36782 3.55725 4.27857 3.55725C4.03864 3.55725 3.84391 3.36252 3.84391 3.12259V2.23589C2.60716 2.71285 1.88157 3.60014 1.53848 5.01307H12.3731C12.0091 3.51436 11.2047 2.61491 9.82656 2.16055Z" fill="white"/>
<path fill-rule="evenodd" clip-rule="evenodd" d="M9.51303 8.16368C9.2731 8.16368 9.07605 7.96895 9.07605 7.72902C9.07605 7.48909 9.26788 7.29436 9.50781 7.29436H9.51303C9.75296 7.29436 9.94769 7.48909 9.94769 7.72902C9.94769 7.96895 9.75296 8.16368 9.51303 8.16368ZM9.51303 10.3967C9.2731 10.3967 9.07605 10.2019 9.07605 9.96201C9.07605 9.7215 9.26788 9.52735 9.50781 9.52735H9.51303C9.75296 9.52735 9.94769 9.7215 9.94769 9.96201C9.94769 10.2019 9.75296 10.3967 9.51303 10.3967ZM6.96361 8.16368C6.72368 8.16368 6.52605 7.96895 6.52605 7.72902C6.52605 7.48909 6.71846 7.29436 6.95839 7.29436H6.96361C7.20354 7.29436 7.39827 7.48909 7.39827 7.72902C7.39827 7.96895 7.20354 8.16368 6.96361 8.16368ZM6.96361 10.3967C6.72368 10.3967 6.52605 10.2019 6.52605 9.96201C6.52605 9.7215 6.71846 9.52735 6.95839 9.52735H6.96361C7.20354 9.52735 7.39827 9.7215 7.39827 9.96201C7.39827 10.2019 7.20354 10.3967 6.96361 10.3967ZM4.40897 8.16368C4.16904 8.16368 3.97141 7.96895 3.97141 7.72902C3.97141 7.48909 4.16382 7.29436 4.40375 7.29436H4.40897C4.6489 7.29436 4.84363 7.48909 4.84363 7.72902C4.84363 7.96895 4.6489 8.16368 4.40897 8.16368ZM4.40897 10.3967C4.16904 10.3967 3.97141 10.2019 3.97141 9.96201C3.97141 9.7215 4.16382 9.52735 4.40375 9.52735H4.40897C4.6489 9.52735 4.84363 9.7215 4.84363 9.96201C4.84363 10.2019 4.6489 10.3967 4.40897 10.3967ZM12.5307 5.88201H1.38085C1.32173 6.35724 1.29102 6.87477 1.29102 7.44794C1.29102 11.6294 2.77349 13.1118 6.95549 13.1118C11.1381 13.1118 12.6206 11.6294 12.6206 7.44794C12.6206 6.87477 12.5898 6.35724 12.5307 5.88201Z" fill="white"/>
<defs>
<clipPath id="clip0_34793_20191">
<rect width="24.5455" height="24.5455" fill="white" transform="matrix(-1 0 0 1 27.8184 2.4541)"/>
</clipPath>
</defs>
</svg>
