<svg width="23" height="16" viewBox="0 0 23 16" fill="none" xmlns="http://www.w3.org/2000/svg">
<rect width="23" height="16" rx="2.5" fill="white"/>
<rect x="0.5" y="0.5" width="22" height="15" rx="2" stroke="white" stroke-opacity="0.5"/>
<path fill-rule="evenodd" clip-rule="evenodd" d="M7.02518 10.8382H5.63182L4.58698 6.79428C4.53738 6.60826 4.43208 6.4438 4.27719 6.3663C3.89064 6.17151 3.46468 6.0165 3 5.93831V5.78262H5.24459C5.55438 5.78262 5.78672 6.0165 5.82544 6.28811L6.36757 9.20512L7.76025 5.78262H9.11488L7.02518 10.8382ZM9.89013 10.8382H8.57422L9.65779 5.78262H10.9737L9.89013 10.8382ZM12.675 7.18316C12.7138 6.91087 12.9461 6.75518 13.2172 6.75518C13.6431 6.71609 14.1071 6.79427 14.4944 6.98838L14.7267 5.89989C14.3395 5.7442 13.9135 5.66602 13.527 5.66602C12.2498 5.66602 11.3204 6.36629 11.3204 7.33817C11.3204 8.07754 11.9787 8.46575 12.4434 8.69963C12.9461 8.93283 13.1397 9.08852 13.101 9.32172C13.101 9.67151 12.7138 9.82721 12.3272 9.82721C11.8625 9.82721 11.3979 9.71061 10.9726 9.51582L10.7402 10.605C11.2049 10.7991 11.7076 10.8773 12.1723 10.8773C13.6044 10.9157 14.4944 10.2161 14.4944 9.16602C14.4944 7.84366 12.675 7.76616 12.675 7.18316ZM19.0992 10.8382L18.0543 5.78262H16.932C16.6997 5.78262 16.4673 5.93831 16.3899 6.17151L14.4551 10.8382H15.8097L16.0801 10.0995H17.7445L17.8994 10.8382H19.0992ZM17.1269 7.14408L17.5135 9.04944H16.4299L17.1269 7.14408Z" fill="#349DDE"/>
</svg>
